<?xml version="1.0" encoding="UTF-8"?>

<svg xmlns="http://www.w3.org/2000/svg" xmlns:xlink="http://www.w3.org/1999/xlink" version="1.1" id="Capa_1" x="0px" y="0px" viewBox="0 0 511.942 511.942" style="enable-background:new 0 0 511.942 511.942;" xml:space="preserve" width="512" height="512">
<g>
	<g>
		<path style="fill:#E7BD8D;" d="M66.673,179.885c-5.475,0-10.216-4.082-10.903-9.654L42.672,64.073    c-0.826-5.848,3.682-11.657,9.57-12.264c0,0,368.724-45.491,368.724-45.491c2.892-0.359,5.813,0.449,8.114,2.245l60.382,47.119    c4.789,3.737,5.642,10.649,1.904,15.439l-45.941,58.873c-1.795,2.3-4.43,3.792-7.325,4.149    C435.92,134.043,68.531,180.107,66.673,179.885z M65.854,72.296l10.403,84.323l354.628-43.752l36.371-46.608L419.139,28.71    L65.854,72.296z"/>
	</g>
	<path  d="M501,489.414H354.687c-4.492-46.445-41.554-83.503-88-87.99v-92.834l79.814,10.278c2.883,0.374,5.838-0.422,8.149-2.22   c2.312-1.795,3.814-4.438,4.173-7.344l8.142-65.996c0.741-6.007-3.509-11.483-9.512-12.257l-90.767-11.691v-64.067l-22,2.714v58.52   l-64.692-8.332c-2.913-0.378-5.856,0.431-8.173,2.238l-37.539,29.293c-4.789,3.737-5.642,10.649-1.904,15.439l28.561,36.601   c1.782,2.283,4.394,3.772,7.267,4.143l76.481,9.848v95.67c-46.436,4.497-83.486,41.55-87.978,87.988H11c-6.075,0-11,4.925-11,11   s4.925,11,11,11c82.361,0.001,250.369-0.001,333.15,0c-0.001,0,156.85,0,156.85,0C515.413,510.912,515.765,490.075,501,489.414z    M156.489,250.302l25.247-19.702l162.055,20.873l-5.448,44.161L175.5,274.666L156.489,250.302z M178.838,489.414   c12.949-88.503,140.804-88.439,153.72,0H178.838z"/>
	<path stroke="#8ebf42"  d="M266.687,11.47c-0.581-14.593-21.423-14.586-22,0c0,0,0,16.596,0,16.596l22-2.714V11.47z"/>
</g>















</svg>
